<svg width="18" height="19" viewBox="0 0 18 19" fill="none" xmlns="http://www.w3.org/2000/svg">
<path d="M9.83331 1.16659C9.83331 0.706348 9.46021 0.333252 8.99998 0.333252C8.53974 0.333252 8.16664 0.706348 8.16664 1.16659V2.41659C8.16664 2.87682 8.53974 3.24992 8.99998 3.24992C9.46021 3.24992 9.83331 2.87682 9.83331 2.41659V1.16659Z" fill="black"/>
<path fill-rule="evenodd" clip-rule="evenodd" d="M3.16664 9.49992C3.16664 6.27826 5.77832 3.66659 8.99998 3.66659C12.2216 3.66659 14.8333 6.27826 14.8333 9.49992C14.8333 12.7216 12.2216 15.3333 8.99998 15.3333C5.77832 15.3333 3.16664 12.7216 3.16664 9.49992ZM8.99998 5.33325C6.69879 5.33325 4.83331 7.19873 4.83331 9.49992C4.83331 11.8011 6.69879 13.6666 8.99998 13.6666C11.3012 13.6666 13.1666 11.8011 13.1666 9.49992C13.1666 7.19873 11.3012 5.33325 8.99998 5.33325Z" fill="black"/>
<path d="M8.99998 15.3333C9.46021 15.3333 9.83331 15.7063 9.83331 16.1666V17.4166C9.83331 17.8768 9.46021 18.2499 8.99998 18.2499C8.53974 18.2499 8.16664 17.8768 8.16664 17.4166V16.1666C8.16664 15.7063 8.53974 15.3333 8.99998 15.3333Z" fill="black"/>
<path d="M14.4115 12.4166C14.6416 12.018 15.1513 11.8814 15.5499 12.1116L16.6324 12.7366C17.031 12.9667 17.1675 13.4763 16.9374 13.8749C16.7073 14.2735 16.1976 14.4101 15.7991 14.1799L14.7165 13.5549C14.318 13.3248 14.1814 12.8152 14.4115 12.4166Z" fill="black"/>
<path d="M14.7165 5.4449C14.318 5.67502 14.1814 6.18467 14.4115 6.58325C14.6416 6.98183 15.1513 7.11839 15.5499 6.88827L16.6324 6.26327C17.031 6.03315 17.1675 5.5235 16.9374 5.12492C16.7073 4.72634 16.1976 4.58978 15.7991 4.8199L14.7165 5.4449Z" fill="black"/>
<path d="M2.19985 4.61156C1.80127 4.38145 1.29161 4.51801 1.06149 4.91658C0.831373 5.31516 0.967936 5.82482 1.36651 6.05494L2.44904 6.67994C2.84762 6.91006 3.35728 6.7735 3.5874 6.37492C3.81752 5.97634 3.68096 5.46668 3.28238 5.23656L2.19985 4.61156Z" fill="black"/>
<path d="M1.06149 14.0833C0.831373 13.6847 0.967936 13.175 1.36651 12.9449L2.44904 12.3199C2.84762 12.0898 3.35728 12.2263 3.5874 12.6249C3.81752 13.0235 3.68096 13.5332 3.28238 13.7633L2.19985 14.3883C1.80127 14.6184 1.29161 14.4818 1.06149 14.0833Z" fill="black"/>
</svg>
