<svg width="18" height="18" viewBox="0 0 18 18" fill="none" xmlns="http://www.w3.org/2000/svg">
<path fill-rule="evenodd" clip-rule="evenodd" d="M7.33329 0.666504C6.41282 0.666504 5.66663 1.4127 5.66663 2.33317V5.6665H2.33329C1.41282 5.6665 0.666626 6.4127 0.666626 7.33317V10.6665C0.666626 11.587 1.41282 12.3332 2.33329 12.3332H5.66663V15.6665C5.66663 16.587 6.41282 17.3332 7.33329 17.3332H10.6666C11.5871 17.3332 12.3333 16.587 12.3333 15.6665V12.3332H15.6666C16.5871 12.3332 17.3333 11.587 17.3333 10.6665V7.33317C17.3333 6.4127 16.5871 5.6665 15.6666 5.6665H12.3333V2.33317C12.3333 1.4127 11.5871 0.666504 10.6666 0.666504H7.33329ZM5.66663 7.33317C6.5871 7.33317 7.33329 6.58698 7.33329 5.6665V2.33317H10.6666V5.6665C10.6666 6.58698 11.4128 7.33317 12.3333 7.33317H15.6666V10.6665H12.3333C11.4128 10.6665 10.6666 11.4127 10.6666 12.3332V15.6665H7.33329V12.3332C7.33329 11.4127 6.5871 10.6665 5.66663 10.6665H2.33329V7.33317H5.66663Z" fill="#EB5017"/>
</svg>
