<svg width="18" height="17" viewBox="0 0 18 17" fill="none" xmlns="http://www.w3.org/2000/svg">
<path fill-rule="evenodd" clip-rule="evenodd" d="M8.99996 0.166748C8.60289 0.166748 8.21073 0.254412 7.85145 0.423481L2.58064 2.90387C1.41233 3.45366 0.666626 4.62872 0.666626 5.91993V11.8334C0.666626 12.6649 1.14682 13.4216 1.89914 13.7756L7.85145 16.5767C8.21073 16.7458 8.60289 16.8334 8.99996 16.8334C9.39703 16.8334 9.78919 16.7458 10.1485 16.5767L16.1008 13.7756C16.8531 13.4216 17.3333 12.6649 17.3333 11.8334V5.91993C17.3333 4.62872 16.5876 3.45366 15.4193 2.90387L10.1485 0.423481C9.78919 0.254412 9.39703 0.166748 8.99996 0.166748ZM15.6666 10.4851L9.83329 7.56839V2.11715L14.7096 4.4119C15.2938 4.68679 15.6666 5.27433 15.6666 5.91993V10.4851ZM8.99996 9.01511L15.4452 12.2377C15.428 12.2487 15.4099 12.2587 15.3911 12.2676L9.4388 15.0687C9.30153 15.1333 9.15168 15.1667 8.99996 15.1667C8.84824 15.1667 8.69839 15.1333 8.56112 15.0687L2.60881 12.2676C2.58999 12.2587 2.57194 12.2487 2.55472 12.2377L8.99996 9.01511ZM8.16663 7.56839L2.33329 10.4851V5.91993C2.33329 5.27433 2.70614 4.68679 3.2903 4.4119L8.16663 2.11715V7.56839Z" fill="black"/>
</svg>
