<svg width="20" height="20" viewBox="0 0 20 20" fill="none" xmlns="http://www.w3.org/2000/svg">
<path fill-rule="evenodd" clip-rule="evenodd" d="M11.4153 1.75396L10.4168 2.6617L9.41832 1.75396C7.85626 0.333911 5.67265 1.60958 5.60915 3.33337H3.3335C1.95278 3.33337 0.833496 4.45266 0.833496 5.83337V7.40744C0.833496 8.07755 1.20815 8.66015 1.75942 8.9572V15.8334C1.75942 17.6743 3.25181 19.1667 5.09275 19.1667H14.9076C16.7485 19.1667 18.2409 17.6743 18.2409 15.8334V8.9572C18.7922 8.66015 19.1668 8.07755 19.1668 7.40744V5.83337C19.1668 4.45266 18.0475 3.33337 16.6668 3.33337H15.2245C15.161 1.60958 12.9774 0.333911 11.4153 1.75396ZM6.6821 5.00004C6.67244 5.0002 6.66278 5.0002 6.65313 5.00004H3.3335C2.87326 5.00004 2.50016 5.37313 2.50016 5.83337V7.40744C2.50016 7.45858 2.54162 7.50004 2.59276 7.50004H17.4076C17.4587 7.50004 17.5002 7.45858 17.5002 7.40744V5.83337C17.5002 5.37313 17.1271 5.00004 16.6668 5.00004H14.1805C14.1709 5.0002 14.1612 5.0002 14.1516 5.00004H6.6821ZM11.2502 9.1667H8.75016V11.4063C8.75016 11.435 8.75712 11.4485 8.76239 11.4565C8.76966 11.4675 8.78295 11.4805 8.80279 11.49C8.82263 11.4996 8.84106 11.5018 8.8542 11.5006C8.86374 11.4997 8.87862 11.4967 8.901 11.4788C9.54361 10.9648 10.4567 10.9648 11.0993 11.4788C11.1217 11.4967 11.1366 11.4997 11.1461 11.5006C11.1593 11.5018 11.1777 11.4996 11.1975 11.49C11.2174 11.4805 11.2307 11.4675 11.2379 11.4565C11.2432 11.4485 11.2502 11.435 11.2502 11.4063V9.1667ZM7.0835 9.1667V11.4063C7.0835 12.8817 8.7901 13.7019 9.94216 12.7803C9.97607 12.7532 10.0243 12.7532 10.0582 12.7803C11.2102 13.7019 12.9168 12.8817 12.9168 11.4063V9.1667H16.5742V15.8334C16.5742 16.7538 15.828 17.5 14.9076 17.5H5.09275C4.17228 17.5 3.42609 16.7538 3.42609 15.8334V9.1667H7.0835ZM8.2972 2.98719L8.67799 3.33337H7.298C7.36805 2.91541 7.90628 2.63182 8.2972 2.98719ZM13.5357 3.33337C13.4656 2.91541 12.9274 2.63182 12.5365 2.98719L12.1557 3.33337H13.5357Z" fill="#667185"/>
</svg>
