<svg width="20" height="20" viewBox="0 0 20 20" fill="none" xmlns="http://www.w3.org/2000/svg">
<path d="M5.00001 8.33325C5.00001 7.87301 5.37311 7.49992 5.83334 7.49992H10C10.4602 7.49992 10.8333 7.87301 10.8333 8.33325C10.8333 8.79349 10.4602 9.16658 10 9.16658H5.83334C5.37311 9.16658 5.00001 8.79349 5.00001 8.33325Z" fill="#667185"/>
<path d="M5.83334 10.8333C5.37311 10.8333 5.00001 11.2063 5.00001 11.6666C5.00001 12.1268 5.37311 12.4999 5.83334 12.4999H13.3333C13.7936 12.4999 14.1667 12.1268 14.1667 11.6666C14.1667 11.2063 13.7936 10.8333 13.3333 10.8333H5.83334Z" fill="#667185"/>
<path fill-rule="evenodd" clip-rule="evenodd" d="M0.833344 13.3333C0.833344 15.1742 2.32573 16.6666 4.16668 16.6666H14.1667C16.0076 16.6666 17.5 15.1742 17.5 13.3333V7.74716C17.5 7.45712 17.5757 7.17209 17.7196 6.92026L18.3444 5.82682C18.9793 4.71572 18.1771 3.33325 16.8974 3.33325H4.16668C2.32573 3.33325 0.833344 4.82564 0.833344 6.66659V13.3333ZM4.16668 14.9999C3.2462 14.9999 2.50001 14.2537 2.50001 13.3333V6.66659C2.50001 5.74611 3.2462 4.99992 4.16668 4.99992H16.8974L16.2725 6.09337C15.9847 6.59703 15.8333 7.16707 15.8333 7.74716V13.3333C15.8333 14.2537 15.0872 14.9999 14.1667 14.9999H4.16668Z" fill="#667185"/>
</svg>
