<svg width="20" height="20" viewBox="0 0 20 20" fill="none" xmlns="http://www.w3.org/2000/svg">
<path d="M6.66667 4.99992C6.20643 4.99992 5.83333 5.37301 5.83333 5.83325C5.83333 6.29349 6.20643 6.66658 6.66667 6.66658H13.3333C13.7936 6.66658 14.1667 6.29349 14.1667 5.83325C14.1667 5.37301 13.7936 4.99992 13.3333 4.99992H6.66667Z" fill="#667185"/>
<path d="M5.83333 9.99992C5.83333 9.53968 6.20643 9.16658 6.66667 9.16658H13.3333C13.7936 9.16658 14.1667 9.53968 14.1667 9.99992C14.1667 10.4602 13.7936 10.8333 13.3333 10.8333H6.66667C6.20643 10.8333 5.83333 10.4602 5.83333 9.99992Z" fill="#667185"/>
<path d="M6.66667 13.3333C6.20643 13.3333 5.83333 13.7063 5.83333 14.1666C5.83333 14.6268 6.20643 14.9999 6.66667 14.9999H8.88889C9.34913 14.9999 9.72222 14.6268 9.72222 14.1666C9.72222 13.7063 9.34913 13.3333 8.88889 13.3333H6.66667Z" fill="#667185"/>
<path d="M11.1111 13.3333C10.6509 13.3333 10.2778 13.7063 10.2778 14.1666C10.2778 14.6268 10.6509 14.9999 11.1111 14.9999H13.3333C13.7936 14.9999 14.1667 14.6268 14.1667 14.1666C14.1667 13.7063 13.7936 13.3333 13.3333 13.3333H11.1111Z" fill="#667185"/>
<path fill-rule="evenodd" clip-rule="evenodd" d="M12.9015 18.2509C12.9952 18.2744 13.0861 18.308 13.1724 18.3512C15.1607 19.3453 17.5 17.8995 17.5 15.6766V4.16658C17.5 2.32564 16.0076 0.833252 14.1667 0.833252H5.83333C3.99238 0.833252 2.5 2.32564 2.5 4.16658V15.6766C2.5 17.8995 4.83933 19.3453 6.82757 18.3512C6.91395 18.308 7.00479 18.2744 7.09848 18.2509L9.59577 17.6266C9.86117 17.5603 10.1388 17.5603 10.4042 17.6266L12.9015 18.2509ZM4.16667 4.16658C4.16667 3.24611 4.91286 2.49992 5.83333 2.49992H14.1667C15.0871 2.49992 15.8333 3.24611 15.8333 4.16658V15.6766C15.8333 16.6605 14.7979 17.3005 13.9178 16.8604C13.7226 16.7629 13.5174 16.687 13.3057 16.634L10.8085 16.0097C10.2777 15.877 9.72235 15.877 9.19155 16.0097L6.69426 16.634C6.48259 16.687 6.27736 16.7629 6.08221 16.8604C5.20214 17.3005 4.16667 16.6605 4.16667 15.6766V4.16658Z" fill="#667185"/>
</svg>
