<svg width="10" height="19" viewBox="0 0 10 19" fill="none" xmlns="http://www.w3.org/2000/svg">
<path d="M5.83333 3.66658C5.83333 3.20635 5.46024 2.83325 5 2.83325C4.53976 2.83325 4.16667 3.20635 4.16667 3.66658V12.8333C4.16667 13.2935 4.53976 13.6666 5 13.6666C5.46024 13.6666 5.83333 13.2935 5.83333 12.8333V3.66658Z" fill="black"/>
<path fill-rule="evenodd" clip-rule="evenodd" d="M5 0.333252C3.32149 0.333252 1.96078 1.69395 1.96078 3.37246V9.43057C0.764893 10.3742 0 11.8585 0 13.5187C0 16.3342 2.21142 18.6666 5 18.6666C7.78858 18.6666 10 16.3342 10 13.5187C10 11.8585 9.23511 10.3742 8.03922 9.43057V3.37247C8.03922 1.69395 6.67851 0.333252 5 0.333252ZM1.66667 13.5187C1.66667 12.35 2.21646 11.324 3.0509 10.6944C3.38208 10.4446 3.62745 10.038 3.62745 9.5585V3.37246C3.62745 2.61443 4.24196 1.99992 5 1.99992C5.75804 1.99992 6.37255 2.61443 6.37255 3.37247V9.5585C6.37255 10.038 6.61792 10.4446 6.9491 10.6944C7.78354 11.324 8.33333 12.35 8.33333 13.5187C8.33333 15.469 6.81379 16.9999 5 16.9999C3.18621 16.9999 1.66667 15.469 1.66667 13.5187Z" fill="black"/>
</svg>
