<svg width="19" height="16" viewBox="0 0 19 16" fill="none" xmlns="http://www.w3.org/2000/svg">
<path d="M6.66602 3.41667C6.66602 2.95643 6.29293 2.58333 5.83269 2.58333C5.37245 2.58333 4.99936 2.95643 4.99936 3.41667V5.08333C4.99936 5.54357 5.37245 5.91667 5.83269 5.91667C6.29293 5.91667 6.66602 5.54357 6.66602 5.08333V3.41667Z" fill="#E8562E"/>
<path d="M5.83269 6.33333C6.29293 6.33333 6.66602 6.70643 6.66602 7.16667V8.83333C6.66602 9.29357 6.29293 9.66667 5.83269 9.66667C5.37245 9.66667 4.99936 9.29357 4.99936 8.83333V7.16667C4.99936 6.70643 5.37245 6.33333 5.83269 6.33333Z" fill="#E8562E"/>
<path d="M6.66602 10.9167C6.66602 10.4564 6.29293 10.0833 5.83269 10.0833C5.37245 10.0833 4.99936 10.4564 4.99936 10.9167V12.5833C4.99936 13.0436 5.37245 13.4167 5.83269 13.4167C6.29293 13.4167 6.66602 13.0436 6.66602 12.5833V10.9167Z" fill="#E8562E"/>
<path fill-rule="evenodd" clip-rule="evenodd" d="M18.7493 12.1667L18.7493 11.9235C18.7493 11.406 18.6289 10.8956 18.3974 10.4328L17.6435 8.92496C17.3761 8.39001 17.4157 7.75275 17.7475 7.25511L18.1895 6.59206C18.5546 6.0445 18.7493 5.40114 18.7493 4.74306V3.83333C18.7493 1.99239 17.257 0.5 15.416 0.5H4.06107C2.06683 0.5 0.523853 2.24785 0.771208 4.2267C0.830968 4.70478 0.994207 5.16409 1.24956 5.57266L2.21457 7.11667C2.55235 7.65712 2.55235 8.34288 2.21457 8.88333L1.33936 10.2837C1.00825 10.8134 0.832689 11.4256 0.832689 12.0503L0.832689 12.1667C0.832689 14.0076 2.32507 15.5 4.16602 15.5H15.416C17.257 15.5 18.7494 14.0076 18.7493 12.1667ZM17.0827 11.9235L17.0827 12.1667C17.0827 13.0871 16.3365 13.8333 15.416 13.8333L4.16602 13.8333C3.24555 13.8333 2.49936 13.0871 2.49936 12.1667V12.0503C2.49936 11.738 2.58714 11.4319 2.75269 11.167L3.6279 9.76666C4.30346 8.68576 4.30346 7.31424 3.6279 6.23334L2.66289 4.68933C2.5359 4.48615 2.45472 4.25773 2.425 4.01998C2.30199 3.03588 3.06932 2.16667 4.06107 2.16667L15.416 2.16667C16.3365 2.16667 17.0827 2.91286 17.0827 3.83333V4.74306C17.0827 5.07211 16.9853 5.39378 16.8028 5.66756L16.3607 6.33061C15.6972 7.3259 15.6179 8.60041 16.1528 9.67031L16.9067 11.1781C17.0224 11.4096 17.0827 11.6648 17.0827 11.9235Z" fill="#E8562E"/>
</svg>
