<svg width="20" height="20" viewBox="0 0 20 20" fill="none" xmlns="http://www.w3.org/2000/svg">
<path d="M6.66636 5.41667C6.66636 4.95643 6.29326 4.58333 5.83303 4.58333C5.37279 4.58333 4.99969 4.95643 4.99969 5.41667V7.08333C4.99969 7.54357 5.37279 7.91667 5.83303 7.91667C6.29326 7.91667 6.66636 7.54357 6.66636 7.08333V5.41667Z" fill="#667185"/>
<path d="M5.83303 8.33333C6.29326 8.33333 6.66636 8.70643 6.66636 9.16667V10.8333C6.66636 11.2936 6.29326 11.6667 5.83303 11.6667C5.37279 11.6667 4.99969 11.2936 4.99969 10.8333V9.16667C4.99969 8.70643 5.37279 8.33333 5.83303 8.33333Z" fill="#667185"/>
<path d="M6.66636 12.9167C6.66636 12.4564 6.29326 12.0833 5.83303 12.0833C5.37279 12.0833 4.99969 12.4564 4.99969 12.9167V14.5833C4.99969 15.0436 5.37279 15.4167 5.83303 15.4167C6.29326 15.4167 6.66636 15.0436 6.66636 14.5833V12.9167Z" fill="#667185"/>
<path fill-rule="evenodd" clip-rule="evenodd" d="M18.7497 14.1667L18.7497 13.9235C18.7497 13.406 18.6292 12.8956 18.3978 12.4328L17.6439 10.925C17.3764 10.39 17.4161 9.75275 17.7478 9.25511L18.1899 8.59206C18.5549 8.0445 18.7497 7.40114 18.7497 6.74306V5.83333C18.7497 3.99239 17.2573 2.5 15.4164 2.5H4.06141C2.06716 2.5 0.524189 4.24785 0.771544 6.2267C0.831304 6.70478 0.994543 7.16409 1.2499 7.57266L2.2149 9.11667C2.55268 9.65712 2.55268 10.3429 2.2149 10.8833L1.3397 12.2837C1.00859 12.8134 0.833025 13.4256 0.833025 14.0503L0.833025 14.1667C0.833025 16.0076 2.32541 17.5 4.16636 17.5H15.4164C17.2573 17.5 18.7497 16.0076 18.7497 14.1667ZM17.083 13.9235L17.083 14.1667C17.083 15.0871 16.3368 15.8333 15.4164 15.8333L4.16636 15.8333C3.24588 15.8333 2.49969 15.0871 2.49969 14.1667V14.0503C2.49969 13.738 2.58747 13.4319 2.75303 13.167L3.62823 11.7667C4.3038 10.6858 4.3038 9.31424 3.62823 8.23334L2.66323 6.68933C2.53624 6.48615 2.45506 6.25773 2.42534 6.01998C2.30233 5.03588 3.06966 4.16667 4.06141 4.16667L15.4164 4.16667C16.3368 4.16667 17.083 4.91286 17.083 5.83333V6.74306C17.083 7.07211 16.9856 7.39378 16.8031 7.66756L16.3611 8.33061C15.6975 9.3259 15.6182 10.6004 16.1531 11.6703L16.9071 13.1781C17.0228 13.4096 17.083 13.6648 17.083 13.9235Z" fill="#667185"/>
</svg>
