<svg width="20" height="20" viewBox="0 0 20 20" fill="none" xmlns="http://www.w3.org/2000/svg">
<path fill-rule="evenodd" clip-rule="evenodd" d="M10 4.16675C8.15906 4.16675 6.66668 5.65913 6.66668 7.50008C6.66668 9.34103 8.15906 10.8334 10 10.8334C11.841 10.8334 13.3333 9.34103 13.3333 7.50008C13.3333 5.65913 11.841 4.16675 10 4.16675ZM8.33334 7.50008C8.33334 6.57961 9.07954 5.83341 10 5.83341C10.9205 5.83341 11.6667 6.57961 11.6667 7.50008C11.6667 8.42056 10.9205 9.16675 10 9.16675C9.07954 9.16675 8.33334 8.42056 8.33334 7.50008Z" fill="#667185"/>
<path fill-rule="evenodd" clip-rule="evenodd" d="M10 18.3334C9.05261 18.3334 7.68657 18.1095 6.64988 17.6331C6.14134 17.3994 5.5957 17.0528 5.27384 16.5342C5.10393 16.2604 4.99658 15.9377 5.00009 15.5785C5.00357 15.2227 5.11514 14.8853 5.29784 14.5762C6.13323 13.1624 7.8663 11.6667 10 11.6667C12.1337 11.6667 13.8668 13.1624 14.7022 14.5762C14.8849 14.8853 14.9964 15.2227 14.9999 15.5785C15.0034 15.9377 14.8961 16.2604 14.7262 16.5342C14.4043 17.0528 13.8587 17.3994 13.3501 17.6331C12.3134 18.1095 10.9474 18.3334 10 18.3334ZM6.73273 15.424C6.6689 15.532 6.66677 15.5857 6.66668 15.5948C6.66661 15.6008 6.6664 15.6174 6.68994 15.6553C6.75611 15.7619 6.94826 15.936 7.34583 16.1187C8.12134 16.4751 9.24071 16.6667 10 16.6667C10.7593 16.6667 11.8787 16.4751 12.6542 16.1187C13.0518 15.936 13.2439 15.7619 13.3101 15.6553C13.3336 15.6174 13.3334 15.6012 13.3333 15.5952C13.3333 15.5861 13.3311 15.532 13.2673 15.424C12.6196 14.3279 11.3529 13.3334 10 13.3334C8.64708 13.3334 7.3804 14.3279 6.73273 15.424Z" fill="#667185"/>
<path fill-rule="evenodd" clip-rule="evenodd" d="M2.08334 10.0001C2.08334 8.61937 3.20263 7.50008 4.58334 7.50008C5.96406 7.50008 7.08334 8.61937 7.08334 10.0001C7.08334 11.3808 5.96406 12.5001 4.58334 12.5001C3.20263 12.5001 2.08334 11.3808 2.08334 10.0001ZM4.58334 9.16675C4.12311 9.16675 3.75001 9.53984 3.75001 10.0001C3.75001 10.4603 4.12311 10.8334 4.58334 10.8334C5.04358 10.8334 5.41668 10.4603 5.41668 10.0001C5.41668 9.53984 5.04358 9.16675 4.58334 9.16675Z" fill="#667185"/>
<path d="M2.41312 16.2039C2.2085 16.6162 1.70843 16.7845 1.29618 16.5799C0.883935 16.3752 0.715616 15.8752 0.920234 15.4629C1.22639 14.8461 1.68978 14.2268 2.27272 13.7529C2.85588 13.2789 3.60315 12.9167 4.45599 12.9167C4.91623 12.9167 5.28932 13.2898 5.28932 13.7501C5.28932 14.2103 4.91623 14.5834 4.45599 14.5834C4.0885 14.5834 3.70066 14.74 3.32401 15.0462C2.94714 15.3526 2.62604 15.7749 2.41312 16.2039Z" fill="#667185"/>
<path fill-rule="evenodd" clip-rule="evenodd" d="M13.1751 10.0001C13.1751 8.61937 14.2943 7.50008 15.6751 7.50008C17.0558 7.50008 18.1751 8.61937 18.1751 10.0001C18.1751 11.3808 17.0558 12.5001 15.6751 12.5001C14.2943 12.5001 13.1751 11.3808 13.1751 10.0001ZM15.6751 9.16675C15.2148 9.16675 14.8417 9.53984 14.8417 10.0001C14.8417 10.4603 15.2148 10.8334 15.6751 10.8334C16.1353 10.8334 16.5084 10.4603 16.5084 10.0001C16.5084 9.53984 16.1353 9.16675 15.6751 9.16675Z" fill="#667185"/>
<path d="M19.0835 15.4629C19.2881 15.8752 19.1198 16.3752 18.7075 16.5799C18.2953 16.7845 17.7952 16.6162 17.5906 16.2039C17.3776 15.7749 17.0566 15.3526 16.6797 15.0462C16.303 14.74 15.9152 14.5834 15.5477 14.5834C15.0875 14.5834 14.7144 14.2103 14.7144 13.7501C14.7144 13.2898 15.0875 12.9167 15.5477 12.9167C16.4005 12.9167 17.1478 13.2789 17.731 13.7529C18.3139 14.2268 18.7773 14.8461 19.0835 15.4629Z" fill="#667185"/>
</svg>
