<svg width="31" height="28" viewBox="0 0 31 28" fill="none" xmlns="http://www.w3.org/2000/svg">
<path d="M10.6661 8.66667C10.6661 7.93029 10.0692 7.33333 9.3328 7.33333C8.59642 7.33333 7.99947 7.93029 7.99947 8.66667V11.3333C7.99947 12.0697 8.59642 12.6667 9.3328 12.6667C10.0692 12.6667 10.6661 12.0697 10.6661 11.3333V8.66667Z" fill="#0F973D"/>
<path d="M9.3328 13.3333C10.0692 13.3333 10.6661 13.9303 10.6661 14.6667V17.3333C10.6661 18.0697 10.0692 18.6667 9.3328 18.6667C8.59642 18.6667 7.99947 18.0697 7.99947 17.3333V14.6667C7.99947 13.9303 8.59642 13.3333 9.3328 13.3333Z" fill="#0F973D"/>
<path d="M10.6661 20.6667C10.6661 19.9303 10.0692 19.3333 9.3328 19.3333C8.59642 19.3333 7.99947 19.9303 7.99947 20.6667V23.3333C7.99947 24.0697 8.59642 24.6667 9.3328 24.6667C10.0692 24.6667 10.6661 24.0697 10.6661 23.3333V20.6667Z" fill="#0F973D"/>
<path fill-rule="evenodd" clip-rule="evenodd" d="M29.9995 22.6667L29.9995 22.2776C29.9995 21.4496 29.8067 20.633 29.4364 19.8925L28.2301 17.4799C27.8022 16.624 27.8657 15.6044 28.3965 14.8082L29.1037 13.7473C29.6878 12.8712 29.9995 11.8418 29.9995 10.7889V9.33333C29.9995 6.38782 27.6116 4 24.6661 4H6.49821C3.30742 4 0.838666 6.79657 1.23443 9.96272C1.33005 10.7276 1.59123 11.4625 1.9998 12.1163L3.54381 14.5867C4.08426 15.4514 4.08426 16.5486 3.54381 17.4133L2.14348 19.6539C1.61371 20.5015 1.3328 21.4809 1.3328 22.4805V22.6667C1.3328 25.6122 3.72062 28 6.66614 28H24.6661C27.6117 28 29.9995 25.6122 29.9995 22.6667ZM27.3328 22.2776L27.3328 22.6667C27.3328 24.1394 26.1389 25.3333 24.6661 25.3333L6.66614 25.3333C5.19338 25.3333 3.99947 24.1394 3.99947 22.6667V22.4805C3.99947 21.9807 4.13992 21.491 4.40481 21.0672L5.80514 18.8267C6.88604 17.0972 6.88604 14.9028 5.80514 13.1733L4.26113 10.7029C4.05795 10.3778 3.92806 10.0124 3.88051 9.63196C3.68369 8.05741 4.91142 6.66667 6.49821 6.66667L24.6661 6.66667C26.1389 6.66667 27.3328 7.86057 27.3328 9.33333V10.7889C27.3328 11.3154 27.177 11.8301 26.8849 12.2681L26.1777 13.329C25.116 14.9214 24.9891 16.9607 25.845 18.6725L27.0513 21.085C27.2364 21.4553 27.3328 21.8636 27.3328 22.2776Z" fill="#0F973D"/>
</svg>
